<svg xmlns="http://www.w3.org/2000/svg" width="380" height="195" viewBox="0 0 380 195">
<style>text{font-family:-apple-system,BlinkMacSystemFont,Segoe UI,Helvetica,Arial,sans-serif}</style>
<rect width="380" height="195" fill="#0d1117" rx="4.5"/>
<text x="16" y="26" fill="#e6edf3" font-size="13" font-weight="600">Most Used Languages</text>
<path d="M 110.0 25.0 A 80 80 0 0 1 125.1 183.6 L 119.5 154.1 A 50 50 0 0 0 110.0 55.0 Z" fill="#b07219"/>
<path d="M 125.1 183.6 A 80 80 0 0 1 30.8 93.6 L 60.5 97.9 A 50 50 0 0 0 119.5 154.1 Z" fill="#555555"/>
<path d="M 30.8 93.6 A 80 80 0 0 1 36.5 73.5 L 64.1 85.3 A 50 50 0 0 0 60.5 97.9 Z" fill="#e34c26"/>
<path d="M 36.5 73.5 A 80 80 0 0 1 42.3 62.4 L 67.7 78.4 A 50 50 0 0 0 64.1 85.3 Z" fill="#3572A5"/>
<path d="M 42.3 62.4 A 80 80 0 0 1 49.4 52.7 L 72.1 72.3 A 50 50 0 0 0 67.7 78.4 Z" fill="#3178c6"/>
<path d="M 49.4 52.7 A 80 80 0 0 1 56.1 45.8 L 76.3 68.0 A 50 50 0 0 0 72.1 72.3 Z" fill="#dea584"/>
<path d="M 56.1 45.8 A 80 80 0 0 1 63.2 40.1 L 80.8 64.4 A 50 50 0 0 0 76.3 68.0 Z" fill="#f1e05a"/>
<path d="M 63.2 40.1 A 80 80 0 0 1 70.4 35.5 L 85.3 61.5 A 50 50 0 0 0 80.8 64.4 Z" fill="#6E4C13"/>
<path d="M 70.4 35.5 A 80 80 0 0 1 110.0 25.0 L 110.0 55.0 A 50 50 0 0 0 85.3 61.5 Z" fill="#8b949e"/>
<text x="110" y="99" fill="#e6edf3" font-size="16" font-weight="600" text-anchor="middle">26</text>
<text x="110" y="117" fill="#7d8590" font-size="10" text-anchor="middle">repos</text>
<rect x="210" y="34" width="10" height="10" fill="#b07219" rx="2"/>
<text x="226" y="43" fill="#e6edf3" font-size="11">Java</text>
<text x="364" y="43" fill="#7d8590" font-size="10" text-anchor="end">47.0%</text>
<rect x="210" y="52" width="10" height="10" fill="#555555" rx="2"/>
<text x="226" y="61" fill="#e6edf3" font-size="11">C</text>
<text x="364" y="61" fill="#7d8590" font-size="10" text-anchor="end">30.3%</text>
<rect x="210" y="70" width="10" height="10" fill="#e34c26" rx="2"/>
<text x="226" y="79" fill="#e6edf3" font-size="11">HTML</text>
<text x="364" y="79" fill="#7d8590" font-size="10" text-anchor="end">4.2%</text>
<rect x="210" y="88" width="10" height="10" fill="#3572A5" rx="2"/>
<text x="226" y="97" fill="#e6edf3" font-size="11">Python</text>
<text x="364" y="97" fill="#7d8590" font-size="10" text-anchor="end">2.5%</text>
<rect x="210" y="106" width="10" height="10" fill="#3178c6" rx="2"/>
<text x="226" y="115" fill="#e6edf3" font-size="11">TypeScript</text>
<text x="364" y="115" fill="#7d8590" font-size="10" text-anchor="end">2.4%</text>
<rect x="210" y="124" width="10" height="10" fill="#dea584" rx="2"/>
<text x="226" y="133" fill="#e6edf3" font-size="11">Rust</text>
<text x="364" y="133" fill="#7d8590" font-size="10" text-anchor="end">1.9%</text>
<rect x="210" y="142" width="10" height="10" fill="#f1e05a" rx="2"/>
<text x="226" y="151" fill="#e6edf3" font-size="11">JavaScript</text>
<text x="364" y="151" fill="#7d8590" font-size="10" text-anchor="end">1.8%</text>
<rect x="210" y="160" width="10" height="10" fill="#6E4C13" rx="2"/>
<text x="226" y="169" fill="#e6edf3" font-size="11">Assembly</text>
<text x="364" y="169" fill="#7d8590" font-size="10" text-anchor="end">1.7%</text>
<rect x="210" y="178" width="10" height="10" fill="#8b949e" rx="2"/>
<text x="226" y="187" fill="#e6edf3" font-size="11">Other</text>
<text x="364" y="187" fill="#7d8590" font-size="10" text-anchor="end">8.2%</text>
</svg>
